<svg xmlns="http://www.w3.org/2000/svg" viewBox="0 0 64 64" width="64" height="64">
  <path d="M23 50C14 49 9 43 10 35c-5-8 1-17 9-17 3-8 14-8 18-1 9-1 16 6 15 15 5 6 2 16-7 18Z" fill="none" stroke="#0a0a0a" stroke-width="3" stroke-linecap="round" stroke-linejoin="round"/>
  <g fill="none" stroke="#5a5a5a" stroke-width="3" stroke-linecap="round" stroke-linejoin="round">
    <path d="M23 50V39M23 39l8-7 8 7v11"/>
    <path d="M31 32V18"/>
    <path d="M21 28h8M35 28h9"/>
  </g>
  <g fill="#5a5a5a"><circle cx="31" cy="18" r="3"/><circle cx="21" cy="28" r="3"/><circle cx="44" cy="28" r="3"/><circle cx="23" cy="39" r="3"/><circle cx="39" cy="39" r="3"/></g>
</svg>
