<svg xmlns="http://www.w3.org/2000/svg" viewBox="0 0 64 64" width="64" height="64">
  <path d="M23 48h18M26 55h12" fill="none" stroke="#0a0a0a" stroke-width="3" stroke-linecap="round"/>
  <path d="M41 42c5-4 8-10 8-17a17 17 0 0 0-34 0c0 7 3 13 8 17v6h18Z" fill="none" stroke="#0a0a0a" stroke-width="3" stroke-linejoin="round"/>
  <path d="M32 39V27" fill="none" stroke="#5a5a5a" stroke-width="3" stroke-linecap="round"/>
  <path d="M32 27c-6 0-10-5-10-12 7 0 11 5 10 12Z" fill="#5a5a5a" stroke="#0a0a0a" stroke-width="3" stroke-linejoin="round"/>
  <path d="M32 27c1-7 5-12 12-12 0 7-4 12-12 12Z" fill="#5a5a5a" stroke="#0a0a0a" stroke-width="3" stroke-linejoin="round"/>
  <path d="M27 22c2 1 4 3 5 5M37 22c-2 1-4 3-5 5" fill="none" stroke="#F7F5F3" stroke-width="2.2" stroke-linecap="round"/>
</svg>
