<svg xmlns="http://www.w3.org/2000/svg" viewBox="0 0 518.27 192.26" role="img" aria-label="Kroger">
  <path fill-rule="evenodd" d="M265.46,80.47c4.84-6.77,10.09-10.16,15.76-10.16h1.45c.41,0,.83.07,1.24.21.41,0,.83.07,1.24.21.55.14,1.04.28,1.45.41v15.97l-1.66-.41h-1.45c-.41-.14-.9-.21-1.45-.21h-1.45c-6.91,0-11.82,3.18-14.72,9.54v30.69h-16.8v-55.37h16.59v9.13"/>
  <path fill-rule="evenodd" d="M340.53,119.46c-2.7,2.7-5.81,4.77-9.33,6.22-3.53,1.24-7.26,2.07-10.99,2.07s-7.47-.83-10.99-2.28c-3.32-1.45-6.64-3.53-9.13-6.22-2.7-2.7-4.77-5.81-6.01-9.33-1.45-3.53-2.28-7.26-2.28-10.99s.83-7.47,2.28-10.99c1.24-3.32,3.32-6.64,6.01-9.33s5.81-4.77,9.13-6.22c3.53-1.45,7.26-2.07,10.99-2.07s7.47.62,10.99,2.07,6.64,3.53,9.33,6.22c1.24,1.38,2.42,2.83,3.53,4.36.97,1.66,1.8,3.32,2.49,4.98.69,1.8,1.24,3.59,1.66,5.39.28,1.94.41,3.8.41,5.6,0,8.16-2.7,15-8.09,20.53M311.29,108.68c.28.14.55.35.83.62,1.11,1.11,2.42,1.94,3.94,2.49,1.52.55,3.11.76,4.77.62,1.52,0,3.04-.35,4.56-1.04,1.38-.69,2.63-1.59,3.73-2.7,1.11-1.38,2-2.9,2.7-4.56.55-1.66.83-3.32.83-4.98,0-1.8-.28-3.53-.83-5.18-.69-1.66-1.59-3.11-2.7-4.36-.28-.28-.48-.55-.62-.83-1.24-1.11-2.63-1.94-4.15-2.49-1.52-.55-3.04-.76-4.56-.62-1.66,0-3.18.35-4.56,1.04-1.52.69-2.83,1.66-3.94,2.9-1.11,1.24-1.94,2.7-2.49,4.36-.69,1.66-1.04,3.39-1.04,5.18,0,1.66.35,3.32,1.04,4.98.55,1.66,1.38,3.18,2.49,4.56Z"/>
  <path fill-rule="evenodd" d="M446.93,70.31c7.88,0,14.31,2.83,19.29,8.5,4.98,5.81,7.47,12.72,7.47,20.74v1.24c0,.55-.07,1.11-.21,1.66v1.24h-38.16c1.24,6.5,5.46,9.75,12.65,9.75,5.12,0,9.19-1.45,12.24-4.36l12.24,6.84c-.69.83-1.52,1.66-2.49,2.49-.83.83-1.66,1.59-2.49,2.28-.97.83-1.94,1.52-2.9,2.07-.97.69-2,1.31-3.11,1.87-4.01,2.07-8.85,3.11-14.52,3.11-8.3,0-15.07-2.7-20.32-8.09-5.12-5.25-7.67-12.1-7.67-20.53s2.7-15.21,8.09-20.74c1.24-1.24,2.63-2.42,4.15-3.53,1.52-.97,3.18-1.8,4.98-2.49,1.66-.69,3.39-1.24,5.18-1.66,1.8-.28,3.66-.41,5.6-.41M456.88,93.75c0-.69-.14-1.31-.41-1.87-.14-.55-.41-1.18-.83-1.87-.28-.55-.62-1.04-1.04-1.45-.41-.55-.83-1.04-1.24-1.45-.41-.55-.9-.97-1.45-1.24-.55-.41-1.11-.76-1.66-1.04-.55-.14-1.18-.28-1.87-.41-.55-.14-1.18-.21-1.87-.21h-1.87c-.55.14-1.18.35-1.87.62-.55.14-1.11.41-1.66.83-.55.28-1.04.62-1.45,1.04-.55.41-1.04.9-1.45,1.45-.41.55-.83,1.11-1.24,1.66-.28.69-.55,1.38-.83,2.07-.28.55-.48,1.18-.62,1.87h21.36Z"/>
  <path d="M512.88,70.31h1.45c.41,0,.83.07,1.24.21.41,0,.9.07,1.45.21.41.14.83.28,1.24.41v15.97c-.55-.14-1.04-.28-1.45-.41h-1.45c-.55-.14-1.11-.21-1.66-.21h-1.45c-6.77,0-11.61,3.18-14.52,9.54v30.69h-16.8v-55.37h16.38v9.13c4.7-6.77,9.95-10.16,15.76-10.16"/>
  <path d="M232.9,60.98c-1.04,7.67-3.94,19.08-12.44,28.83-.69.69-1.31,1.31-1.87,1.87l23.64,35.05h-21.36l-16.18-25.3c-1.11.55-2.28,1.11-3.53,1.66-1.24.41-2.49.83-3.73,1.24-1.38.41-2.7.76-3.94,1.04-1.24.28-2.56.55-3.94.83v20.53h-17.84V53.1h17.84v36.92c8.02-1.8,14.31-5.32,18.87-10.58,6.01-6.84,8.09-14.93,8.71-20.53.14-.41.21-.83.21-1.24v-1.04c.14-.41.21-.83.21-1.24v-1.24c.21-14.52,6.22-28.41,16.59-38.37C244.72,5.6,258.62-.2,273.34,0c14.52.21,28.41,6.01,38.78,16.38,10.16,10.37,15.97,24.26,15.97,38.78h-15.97v-1.66c-.21-10.37-4.56-20.32-12.03-27.58-7.67-7.26-17.63-11.2-28.21-10.99-10.37.21-20.32,4.56-27.58,12.24-7.26,7.47-11.2,17.63-10.99,28v2.9c-.14.41-.21.9-.21,1.45,0,.41-.07.9-.21,1.45"/>
  <path fill-rule="evenodd" d="M411.67,144.56c-.41,12.86-6.01,25.09-15.35,34.01-9.54,8.92-21.98,13.9-35.05,13.69-12.86-.21-25.3-5.6-34.43-14.72s-14.31-21.57-14.52-34.43h15.76c0,8.92,3.73,17.42,9.95,23.85,6.43,6.43,14.93,9.95,24.06,9.95s17.63-3.53,23.85-9.95c6.43-6.43,9.95-14.93,9.95-23.85v-21.78c-.97.69-2.07,1.31-3.32,1.87-1.11.55-2.28,1.04-3.53,1.45-1.24.41-2.49.69-3.73.83-1.38.28-2.7.41-3.94.41-6.77,0-12.86-2.63-18.25-7.88-5.39-5.25-8.09-11.82-8.09-19.7s2.63-14.52,7.88-19.91,11.41-8.09,18.46-8.09c1.38,0,2.7.14,3.94.41,1.38.14,2.7.48,3.94,1.04,1.11.41,2.21,1.04,3.32,1.87,1.11.69,2.14,1.52,3.11,2.49v-4.77h15.97v73.21ZM392.38,107.64c1.11-1.24,1.94-2.7,2.49-4.36.69-1.52,1.04-3.18,1.04-4.98,0-1.66-.35-3.32-1.04-4.98-.55-1.52-1.38-2.97-2.49-4.36l-.21-.21c-1.24-1.11-2.63-2-4.15-2.7-1.52-.55-3.11-.83-4.77-.83s-3.25.35-4.77,1.04c-1.52.55-2.83,1.45-3.94,2.7-1.11,1.24-2,2.7-2.7,4.36-.55,1.66-.83,3.32-.83,4.98,0,1.8.28,3.46.83,4.98.69,1.66,1.59,3.11,2.7,4.36l.21.41c1.11,1.11,2.49,1.94,4.15,2.49,1.52.69,3.11,1.04,4.77,1.04,1.66-.14,3.25-.48,4.77-1.04,1.52-.69,2.83-1.66,3.94-2.9Z"/>
  <path fill-rule="evenodd" d="M423.91,168.82c0,2.49-1.45,4.56-3.53,5.6-2.28,1.04-4.77.62-6.64-1.04-1.66-1.66-2.28-4.15-1.45-6.43s3.11-3.73,5.39-3.94h.21c.69,0,1.45.14,2.28.41.69.28,1.31.69,1.87,1.24s.97,1.18,1.24,1.87c.28.69.48,1.45.62,2.28h0ZM413.54,168.61c-.14.69-.07,1.31.21,1.87.14.55.41,1.04.83,1.45.41.41.9.76,1.45,1.04.55.14,1.11.28,1.66.41h.21c.55,0,1.11-.14,1.66-.41.55-.28,1.04-.62,1.45-1.04.41-.41.76-.9,1.04-1.45.14-.55.21-1.11.21-1.66,0-1.24-.41-2.49-1.24-3.32s-1.87-1.24-3.11-1.24-2.28.41-3.11,1.24-1.24,2.07-1.24,3.32v-.21ZM417.06,171.52h-1.45v-5.81h2.28c.14-.14.28-.14.41,0h.62c.14,0,.28.07.41.21.28,0,.48.07.62.21,0,0,.07.07.21.21,0,.14.07.21.21.21v1.24c-.14.14-.21.28-.21.41-.14.14-.28.21-.41.21-.14.14-.28.21-.41.21.14.14.21.28.21.41.14,0,.28.07.41.21.14.14.21.28.21.41.14.14.21.28.21.41v.83c.14.14.21.21.21.21,0,.14.07.28.21.41h-1.45c-.14-.14-.21-.28-.21-.41,0,0-.07-.07-.21-.21,0-.14,0-.28,0-.41,0-.14,0-.28,0-.41-.21-.62-.62-.83-1.24-.83h-.62v2.28ZM417.06,168.2h.62c.83,0,1.24-.21,1.24-.83s-.21-.83-1.04-.83c-.14,0-.21,0-.21,0h-.62v1.66Z"/>
  <path d="M55.17,118.43c0,3.94-2.28,7.26-5.81,8.71s-7.67.62-10.37-2.07-3.32-6.84-1.87-10.37,4.77-5.81,8.71-5.81c1.24,0,2.42.28,3.53.83,1.24.41,2.28,1.11,3.11,2.07.83.83,1.52,1.87,2.07,3.11.41,1.11.62,2.28.62,3.53Z"/>
  <ellipse cx="123.6" cy="118.43" rx="9.33" ry="9.54"/>
  <path d="M45.21,56c0-.14,0-.28,0-.41,0-.28,0-.48,0-.62.14-.14.21-.28.21-.41.14-.14.28-.21.41-.21,0-.14.07-.28.21-.41.14-.14.28-.21.41-.21.14,0,.28-.07.41-.21h26.55c.14.14.35.21.62.21.14.14.28.28.41.41.14.14.21.28.21.41.14.28.21.48.21.62.14.14.21.35.21.62,0,.14-.07.28-.21.41,0,.28-.07.48-.21.62l-13.07,23.02c-.14.28-.35.48-.62.62-.14.14-.35.28-.62.41-.28.14-.55.14-.83,0-.28,0-.55-.07-.83-.21h-.21v-.21c-.14,0-.21,0-.21,0-1.66-1.52-3.25-3.18-4.77-4.98-1.38-1.66-2.63-3.53-3.73-5.6-1.11-1.94-2.07-4.01-2.9-6.22-.69-2.21-1.18-4.42-1.45-6.64-.14-.28-.21-.62-.21-1.04ZM86.48,89.39c-1.52.14-3.04.21-4.56.21-1.66,0-3.25-.14-4.77-.41-1.52-.28-3.04-.62-4.56-1.04-1.52-.41-2.97-.97-4.36-1.66-.14,0-.28-.07-.41-.21-.14,0-.28-.07-.41-.21-.14-.14-.21-.28-.21-.41-.14-.14-.21-.28-.21-.41-.14-.14-.21-.28-.21-.41v-.41c0-.14.07-.35.21-.62,0-.14.07-.28.21-.41l15.14-26.55c.28-.41.55-.69.83-.83.28-.14.62-.21,1.04-.21.41,0,.76.07,1.04.21.41.14.69.41.83.83l14.72,25.72c.14.28.28.55.41.83,0,.28-.07.62-.21,1.04,0,.28-.14.48-.41.62-.14.28-.35.48-.62.62-1.11.55-2.21,1.04-3.32,1.45-.97.41-2.07.76-3.32,1.04-1.11.28-2.21.55-3.32.83-1.11.28-2.28.41-3.53.41h0ZM112.41,75.7l-.83.83c-.14.28-.35.55-.62.83-.28.28-.55.55-.83.83l-.83.83-.21.21c-.14.14-.28.21-.41.21-.28,0-.48.07-.62.21h-.41c-.14-.14-.28-.21-.41-.21-.14-.14-.28-.21-.41-.21-.14-.14-.28-.28-.41-.41s-.28-.28-.41-.41l-12.24-21.57c-.14-.14-.21-.35-.21-.62-.14-.14-.21-.28-.21-.41,0-.28.07-.48.21-.62,0-.28.07-.48.21-.62,0-.14.07-.28.21-.41.14-.14.28-.28.41-.41.28,0,.48-.07.62-.21h24.26c.14.14.28.21.41.21s.28.07.41.21.21.28.21.41c.14,0,.28.07.41.21,0,.14,0,.28,0,.41.14.14.21.35.21.62v.41c-.28,1.8-.62,3.53-1.04,5.18-.55,1.8-1.18,3.53-1.87,5.18-.69,1.66-1.52,3.32-2.49,4.98-.97,1.52-2,2.97-3.11,4.36h0Z"/>
  <path d="M144.14,53.51c-1.45,30.07-24.68,55.37-55.17,58.07-1.94.28-3.8.41-5.6.41-31.11,0-57.86-24.06-60.77-56-1.24-14.72-9.33-23.23-22.61-24.26v-15.76c21.57,1.04,36.09,15.76,38.16,38.57,2.28,25.09,24.47,43.76,49.36,41.48,22.4-2.07,39.4-20.53,41.06-42.52h15.55Z"/>
</svg>
