<svg xmlns="http://www.w3.org/2000/svg" xmlns:xlink="http://www.w3.org/1999/xlink" width="500" zoomAndPan="magnify" viewBox="0 0 375 374.999991" height="500" preserveAspectRatio="xMidYMid meet" version="1.0"><defs><clipPath id="846d2627fd"><path d="M 21.242188 27.5625 L 354 27.5625 L 354 45 L 21.242188 45 Z M 21.242188 27.5625 " clip-rule="nonzero"/></clipPath><clipPath id="1c17666295"><path d="M 147.335938 329.730469 C 133.34375 348.925781 106.488281 353.179688 87.230469 339.25 C 86.59375 338.816406 86.015625 338.351562 85.425781 337.90625 C 66.167969 323.972656 61.929688 297.121094 75.875 277.929688 C 94.300781 252.59375 116.148438 222.652344 116.148438 222.652344 C 116.148438 222.652344 80.851562 211.21875 51.023438 201.542969 C 28.40625 194.199219 16.027344 169.96875 23.386719 147.433594 C 23.625 146.730469 23.816406 145.996094 24.074219 145.277344 C 31.429688 122.726562 55.707031 110.410156 78.324219 117.71875 C 108.152344 127.394531 143.449219 138.832031 143.449219 138.832031 L 143.449219 70.488281 C 143.449219 46.769531 162.660156 27.5625 186.441406 27.5625 L 188.730469 27.5625 C 212.464844 27.5625 231.769531 46.769531 231.769531 70.488281 L 231.769531 138.832031 C 231.769531 138.832031 267.066406 127.394531 296.894531 117.71875 C 319.507812 110.394531 343.789062 122.726562 351.097656 145.277344 C 351.386719 146.011719 351.578125 146.730469 351.785156 147.433594 C 359.140625 169.988281 346.8125 194.199219 324.195312 201.542969 C 294.320312 211.21875 259.070312 222.652344 259.070312 222.652344 C 259.070312 222.652344 280.804688 252.59375 299.339844 277.929688 C 313.289062 297.121094 308.984375 323.957031 289.792969 337.90625 C 289.203125 338.335938 288.578125 338.800781 287.9375 339.25 C 268.730469 353.179688 241.828125 348.925781 227.832031 329.730469 C 209.410156 304.398438 187.609375 274.457031 187.609375 274.457031 C 187.609375 274.457031 165.777344 304.398438 147.335938 329.730469 Z M 147.335938 329.730469 " clip-rule="nonzero"/></clipPath><clipPath id="b67107c4ed"><path d="M 21.242188 32 L 354 32 L 354 60 L 21.242188 60 Z M 21.242188 32 " clip-rule="nonzero"/></clipPath><clipPath id="4bcb7b3279"><path d="M 147.335938 329.730469 C 133.34375 348.925781 106.488281 353.179688 87.230469 339.25 C 86.59375 338.816406 86.015625 338.351562 85.425781 337.90625 C 66.167969 323.972656 61.929688 297.121094 75.875 277.929688 C 94.300781 252.59375 116.148438 222.652344 116.148438 222.652344 C 116.148438 222.652344 80.851562 211.21875 51.023438 201.542969 C 28.40625 194.199219 16.027344 169.96875 23.386719 147.433594 C 23.625 146.730469 23.816406 145.996094 24.074219 145.277344 C 31.429688 122.726562 55.707031 110.410156 78.324219 117.71875 C 108.152344 127.394531 143.449219 138.832031 143.449219 138.832031 L 143.449219 70.488281 C 143.449219 46.769531 162.660156 27.5625 186.441406 27.5625 L 188.730469 27.5625 C 212.464844 27.5625 231.769531 46.769531 231.769531 70.488281 L 231.769531 138.832031 C 231.769531 138.832031 267.066406 127.394531 296.894531 117.71875 C 319.507812 110.394531 343.789062 122.726562 351.097656 145.277344 C 351.386719 146.011719 351.578125 146.730469 351.785156 147.433594 C 359.140625 169.988281 346.8125 194.199219 324.195312 201.542969 C 294.320312 211.21875 259.070312 222.652344 259.070312 222.652344 C 259.070312 222.652344 280.804688 252.59375 299.339844 277.929688 C 313.289062 297.121094 308.984375 323.957031 289.792969 337.90625 C 289.203125 338.335938 288.578125 338.800781 287.9375 339.25 C 268.730469 353.179688 241.828125 348.925781 227.832031 329.730469 C 209.410156 304.398438 187.609375 274.457031 187.609375 274.457031 C 187.609375 274.457031 165.777344 304.398438 147.335938 329.730469 Z M 147.335938 329.730469 " clip-rule="nonzero"/></clipPath><clipPath id="239f1c3ef4"><path d="M 21.242188 47 L 354 47 L 354 75 L 21.242188 75 Z M 21.242188 47 " clip-rule="nonzero"/></clipPath><clipPath id="25548eeae4"><path d="M 147.335938 329.730469 C 133.34375 348.925781 106.488281 353.179688 87.230469 339.25 C 86.59375 338.816406 86.015625 338.351562 85.425781 337.90625 C 66.167969 323.972656 61.929688 297.121094 75.875 277.929688 C 94.300781 252.59375 116.148438 222.652344 116.148438 222.652344 C 116.148438 222.652344 80.851562 211.21875 51.023438 201.542969 C 28.40625 194.199219 16.027344 169.96875 23.386719 147.433594 C 23.625 146.730469 23.816406 145.996094 24.074219 145.277344 C 31.429688 122.726562 55.707031 110.410156 78.324219 117.71875 C 108.152344 127.394531 143.449219 138.832031 143.449219 138.832031 L 143.449219 70.488281 C 143.449219 46.769531 162.660156 27.5625 186.441406 27.5625 L 188.730469 27.5625 C 212.464844 27.5625 231.769531 46.769531 231.769531 70.488281 L 231.769531 138.832031 C 231.769531 138.832031 267.066406 127.394531 296.894531 117.71875 C 319.507812 110.394531 343.789062 122.726562 351.097656 145.277344 C 351.386719 146.011719 351.578125 146.730469 351.785156 147.433594 C 359.140625 169.988281 346.8125 194.199219 324.195312 201.542969 C 294.320312 211.21875 259.070312 222.652344 259.070312 222.652344 C 259.070312 222.652344 280.804688 252.59375 299.339844 277.929688 C 313.289062 297.121094 308.984375 323.957031 289.792969 337.90625 C 289.203125 338.335938 288.578125 338.800781 287.9375 339.25 C 268.730469 353.179688 241.828125 348.925781 227.832031 329.730469 C 209.410156 304.398438 187.609375 274.457031 187.609375 274.457031 C 187.609375 274.457031 165.777344 304.398438 147.335938 329.730469 Z M 147.335938 329.730469 " clip-rule="nonzero"/></clipPath><clipPath id="4e769411f2"><path d="M 21.242188 61 L 354 61 L 354 90 L 21.242188 90 Z M 21.242188 61 " clip-rule="nonzero"/></clipPath><clipPath id="ec1c4f6a53"><path d="M 147.335938 329.730469 C 133.34375 348.925781 106.488281 353.179688 87.230469 339.25 C 86.59375 338.816406 86.015625 338.351562 85.425781 337.90625 C 66.167969 323.972656 61.929688 297.121094 75.875 277.929688 C 94.300781 252.59375 116.148438 222.652344 116.148438 222.652344 C 116.148438 222.652344 80.851562 211.21875 51.023438 201.542969 C 28.40625 194.199219 16.027344 169.96875 23.386719 147.433594 C 23.625 146.730469 23.816406 145.996094 24.074219 145.277344 C 31.429688 122.726562 55.707031 110.410156 78.324219 117.71875 C 108.152344 127.394531 143.449219 138.832031 143.449219 138.832031 L 143.449219 70.488281 C 143.449219 46.769531 162.660156 27.5625 186.441406 27.5625 L 188.730469 27.5625 C 212.464844 27.5625 231.769531 46.769531 231.769531 70.488281 L 231.769531 138.832031 C 231.769531 138.832031 267.066406 127.394531 296.894531 117.71875 C 319.507812 110.394531 343.789062 122.726562 351.097656 145.277344 C 351.386719 146.011719 351.578125 146.730469 351.785156 147.433594 C 359.140625 169.988281 346.8125 194.199219 324.195312 201.542969 C 294.320312 211.21875 259.070312 222.652344 259.070312 222.652344 C 259.070312 222.652344 280.804688 252.59375 299.339844 277.929688 C 313.289062 297.121094 308.984375 323.957031 289.792969 337.90625 C 289.203125 338.335938 288.578125 338.800781 287.9375 339.25 C 268.730469 353.179688 241.828125 348.925781 227.832031 329.730469 C 209.410156 304.398438 187.609375 274.457031 187.609375 274.457031 C 187.609375 274.457031 165.777344 304.398438 147.335938 329.730469 Z M 147.335938 329.730469 " clip-rule="nonzero"/></clipPath><clipPath id="59d74f00a9"><path d="M 21.242188 76 L 354 76 L 354 105 L 21.242188 105 Z M 21.242188 76 " clip-rule="nonzero"/></clipPath><clipPath id="4a79bfa28d"><path d="M 147.335938 329.730469 C 133.34375 348.925781 106.488281 353.179688 87.230469 339.25 C 86.59375 338.816406 86.015625 338.351562 85.425781 337.90625 C 66.167969 323.972656 61.929688 297.121094 75.875 277.929688 C 94.300781 252.59375 116.148438 222.652344 116.148438 222.652344 C 116.148438 222.652344 80.851562 211.21875 51.023438 201.542969 C 28.40625 194.199219 16.027344 169.96875 23.386719 147.433594 C 23.625 146.730469 23.816406 145.996094 24.074219 145.277344 C 31.429688 122.726562 55.707031 110.410156 78.324219 117.71875 C 108.152344 127.394531 143.449219 138.832031 143.449219 138.832031 L 143.449219 70.488281 C 143.449219 46.769531 162.660156 27.5625 186.441406 27.5625 L 188.730469 27.5625 C 212.464844 27.5625 231.769531 46.769531 231.769531 70.488281 L 231.769531 138.832031 C 231.769531 138.832031 267.066406 127.394531 296.894531 117.71875 C 319.507812 110.394531 343.789062 122.726562 351.097656 145.277344 C 351.386719 146.011719 351.578125 146.730469 351.785156 147.433594 C 359.140625 169.988281 346.8125 194.199219 324.195312 201.542969 C 294.320312 211.21875 259.070312 222.652344 259.070312 222.652344 C 259.070312 222.652344 280.804688 252.59375 299.339844 277.929688 C 313.289062 297.121094 308.984375 323.957031 289.792969 337.90625 C 289.203125 338.335938 288.578125 338.800781 287.9375 339.25 C 268.730469 353.179688 241.828125 348.925781 227.832031 329.730469 C 209.410156 304.398438 187.609375 274.457031 187.609375 274.457031 C 187.609375 274.457031 165.777344 304.398438 147.335938 329.730469 Z M 147.335938 329.730469 " clip-rule="nonzero"/></clipPath><clipPath id="18f8cc3c72"><path d="M 21.242188 91 L 354 91 L 354 119 L 21.242188 119 Z M 21.242188 91 " clip-rule="nonzero"/></clipPath><clipPath id="bc3f425c98"><path d="M 147.335938 329.730469 C 133.34375 348.925781 106.488281 353.179688 87.230469 339.25 C 86.59375 338.816406 86.015625 338.351562 85.425781 337.90625 C 66.167969 323.972656 61.929688 297.121094 75.875 277.929688 C 94.300781 252.59375 116.148438 222.652344 116.148438 222.652344 C 116.148438 222.652344 80.851562 211.21875 51.023438 201.542969 C 28.40625 194.199219 16.027344 169.96875 23.386719 147.433594 C 23.625 146.730469 23.816406 145.996094 24.074219 145.277344 C 31.429688 122.726562 55.707031 110.410156 78.324219 117.71875 C 108.152344 127.394531 143.449219 138.832031 143.449219 138.832031 L 143.449219 70.488281 C 143.449219 46.769531 162.660156 27.5625 186.441406 27.5625 L 188.730469 27.5625 C 212.464844 27.5625 231.769531 46.769531 231.769531 70.488281 L 231.769531 138.832031 C 231.769531 138.832031 267.066406 127.394531 296.894531 117.71875 C 319.507812 110.394531 343.789062 122.726562 351.097656 145.277344 C 351.386719 146.011719 351.578125 146.730469 351.785156 147.433594 C 359.140625 169.988281 346.8125 194.199219 324.195312 201.542969 C 294.320312 211.21875 259.070312 222.652344 259.070312 222.652344 C 259.070312 222.652344 280.804688 252.59375 299.339844 277.929688 C 313.289062 297.121094 308.984375 323.957031 289.792969 337.90625 C 289.203125 338.335938 288.578125 338.800781 287.9375 339.25 C 268.730469 353.179688 241.828125 348.925781 227.832031 329.730469 C 209.410156 304.398438 187.609375 274.457031 187.609375 274.457031 C 187.609375 274.457031 165.777344 304.398438 147.335938 329.730469 Z M 147.335938 329.730469 " clip-rule="nonzero"/></clipPath><clipPath id="8e218f6658"><path d="M 21.242188 106 L 354 106 L 354 134 L 21.242188 134 Z M 21.242188 106 " clip-rule="nonzero"/></clipPath><clipPath id="dfae917da2"><path d="M 147.335938 329.730469 C 133.34375 348.925781 106.488281 353.179688 87.230469 339.25 C 86.59375 338.816406 86.015625 338.351562 85.425781 337.90625 C 66.167969 323.972656 61.929688 297.121094 75.875 277.929688 C 94.300781 252.59375 116.148438 222.652344 116.148438 222.652344 C 116.148438 222.652344 80.851562 211.21875 51.023438 201.542969 C 28.40625 194.199219 16.027344 169.96875 23.386719 147.433594 C 23.625 146.730469 23.816406 145.996094 24.074219 145.277344 C 31.429688 122.726562 55.707031 110.410156 78.324219 117.71875 C 108.152344 127.394531 143.449219 138.832031 143.449219 138.832031 L 143.449219 70.488281 C 143.449219 46.769531 162.660156 27.5625 186.441406 27.5625 L 188.730469 27.5625 C 212.464844 27.5625 231.769531 46.769531 231.769531 70.488281 L 231.769531 138.832031 C 231.769531 138.832031 267.066406 127.394531 296.894531 117.71875 C 319.507812 110.394531 343.789062 122.726562 351.097656 145.277344 C 351.386719 146.011719 351.578125 146.730469 351.785156 147.433594 C 359.140625 169.988281 346.8125 194.199219 324.195312 201.542969 C 294.320312 211.21875 259.070312 222.652344 259.070312 222.652344 C 259.070312 222.652344 280.804688 252.59375 299.339844 277.929688 C 313.289062 297.121094 308.984375 323.957031 289.792969 337.90625 C 289.203125 338.335938 288.578125 338.800781 287.9375 339.25 C 268.730469 353.179688 241.828125 348.925781 227.832031 329.730469 C 209.410156 304.398438 187.609375 274.457031 187.609375 274.457031 C 187.609375 274.457031 165.777344 304.398438 147.335938 329.730469 Z M 147.335938 329.730469 " clip-rule="nonzero"/></clipPath><clipPath id="a7ffdead7a"><path d="M 21.242188 121 L 354 121 L 354 149 L 21.242188 149 Z M 21.242188 121 " clip-rule="nonzero"/></clipPath><clipPath id="7ac23df32a"><path d="M 147.335938 329.730469 C 133.34375 348.925781 106.488281 353.179688 87.230469 339.25 C 86.59375 338.816406 86.015625 338.351562 85.425781 337.90625 C 66.167969 323.972656 61.929688 297.121094 75.875 277.929688 C 94.300781 252.59375 116.148438 222.652344 116.148438 222.652344 C 116.148438 222.652344 80.851562 211.21875 51.023438 201.542969 C 28.40625 194.199219 16.027344 169.96875 23.386719 147.433594 C 23.625 146.730469 23.816406 145.996094 24.074219 145.277344 C 31.429688 122.726562 55.707031 110.410156 78.324219 117.71875 C 108.152344 127.394531 143.449219 138.832031 143.449219 138.832031 L 143.449219 70.488281 C 143.449219 46.769531 162.660156 27.5625 186.441406 27.5625 L 188.730469 27.5625 C 212.464844 27.5625 231.769531 46.769531 231.769531 70.488281 L 231.769531 138.832031 C 231.769531 138.832031 267.066406 127.394531 296.894531 117.71875 C 319.507812 110.394531 343.789062 122.726562 351.097656 145.277344 C 351.386719 146.011719 351.578125 146.730469 351.785156 147.433594 C 359.140625 169.988281 346.8125 194.199219 324.195312 201.542969 C 294.320312 211.21875 259.070312 222.652344 259.070312 222.652344 C 259.070312 222.652344 280.804688 252.59375 299.339844 277.929688 C 313.289062 297.121094 308.984375 323.957031 289.792969 337.90625 C 289.203125 338.335938 288.578125 338.800781 287.9375 339.25 C 268.730469 353.179688 241.828125 348.925781 227.832031 329.730469 C 209.410156 304.398438 187.609375 274.457031 187.609375 274.457031 C 187.609375 274.457031 165.777344 304.398438 147.335938 329.730469 Z M 147.335938 329.730469 " clip-rule="nonzero"/></clipPath><clipPath id="889c80b71e"><path d="M 21.242188 136 L 354 136 L 354 164 L 21.242188 164 Z M 21.242188 136 " clip-rule="nonzero"/></clipPath><clipPath id="91bda8b24e"><path d="M 147.335938 329.730469 C 133.34375 348.925781 106.488281 353.179688 87.230469 339.25 C 86.59375 338.816406 86.015625 338.351562 85.425781 337.90625 C 66.167969 323.972656 61.929688 297.121094 75.875 277.929688 C 94.300781 252.59375 116.148438 222.652344 116.148438 222.652344 C 116.148438 222.652344 80.851562 211.21875 51.023438 201.542969 C 28.40625 194.199219 16.027344 169.96875 23.386719 147.433594 C 23.625 146.730469 23.816406 145.996094 24.074219 145.277344 C 31.429688 122.726562 55.707031 110.410156 78.324219 117.71875 C 108.152344 127.394531 143.449219 138.832031 143.449219 138.832031 L 143.449219 70.488281 C 143.449219 46.769531 162.660156 27.5625 186.441406 27.5625 L 188.730469 27.5625 C 212.464844 27.5625 231.769531 46.769531 231.769531 70.488281 L 231.769531 138.832031 C 231.769531 138.832031 267.066406 127.394531 296.894531 117.71875 C 319.507812 110.394531 343.789062 122.726562 351.097656 145.277344 C 351.386719 146.011719 351.578125 146.730469 351.785156 147.433594 C 359.140625 169.988281 346.8125 194.199219 324.195312 201.542969 C 294.320312 211.21875 259.070312 222.652344 259.070312 222.652344 C 259.070312 222.652344 280.804688 252.59375 299.339844 277.929688 C 313.289062 297.121094 308.984375 323.957031 289.792969 337.90625 C 289.203125 338.335938 288.578125 338.800781 287.9375 339.25 C 268.730469 353.179688 241.828125 348.925781 227.832031 329.730469 C 209.410156 304.398438 187.609375 274.457031 187.609375 274.457031 C 187.609375 274.457031 165.777344 304.398438 147.335938 329.730469 Z M 147.335938 329.730469 " clip-rule="nonzero"/></clipPath><clipPath id="bf552c77ee"><path d="M 21.242188 151 L 354 151 L 354 179 L 21.242188 179 Z M 21.242188 151 " clip-rule="nonzero"/></clipPath><clipPath id="5dc0c05a8c"><path d="M 147.335938 329.730469 C 133.34375 348.925781 106.488281 353.179688 87.230469 339.25 C 86.59375 338.816406 86.015625 338.351562 85.425781 337.90625 C 66.167969 323.972656 61.929688 297.121094 75.875 277.929688 C 94.300781 252.59375 116.148438 222.652344 116.148438 222.652344 C 116.148438 222.652344 80.851562 211.21875 51.023438 201.542969 C 28.40625 194.199219 16.027344 169.96875 23.386719 147.433594 C 23.625 146.730469 23.816406 145.996094 24.074219 145.277344 C 31.429688 122.726562 55.707031 110.410156 78.324219 117.71875 C 108.152344 127.394531 143.449219 138.832031 143.449219 138.832031 L 143.449219 70.488281 C 143.449219 46.769531 162.660156 27.5625 186.441406 27.5625 L 188.730469 27.5625 C 212.464844 27.5625 231.769531 46.769531 231.769531 70.488281 L 231.769531 138.832031 C 231.769531 138.832031 267.066406 127.394531 296.894531 117.71875 C 319.507812 110.394531 343.789062 122.726562 351.097656 145.277344 C 351.386719 146.011719 351.578125 146.730469 351.785156 147.433594 C 359.140625 169.988281 346.8125 194.199219 324.195312 201.542969 C 294.320312 211.21875 259.070312 222.652344 259.070312 222.652344 C 259.070312 222.652344 280.804688 252.59375 299.339844 277.929688 C 313.289062 297.121094 308.984375 323.957031 289.792969 337.90625 C 289.203125 338.335938 288.578125 338.800781 287.9375 339.25 C 268.730469 353.179688 241.828125 348.925781 227.832031 329.730469 C 209.410156 304.398438 187.609375 274.457031 187.609375 274.457031 C 187.609375 274.457031 165.777344 304.398438 147.335938 329.730469 Z M 147.335938 329.730469 " clip-rule="nonzero"/></clipPath><clipPath id="2c8d3a0c11"><path d="M 21.242188 166 L 354 166 L 354 194 L 21.242188 194 Z M 21.242188 166 " clip-rule="nonzero"/></clipPath><clipPath id="d4ba5630dd"><path d="M 147.335938 329.730469 C 133.34375 348.925781 106.488281 353.179688 87.230469 339.25 C 86.59375 338.816406 86.015625 338.351562 85.425781 337.90625 C 66.167969 323.972656 61.929688 297.121094 75.875 277.929688 C 94.300781 252.59375 116.148438 222.652344 116.148438 222.652344 C 116.148438 222.652344 80.851562 211.21875 51.023438 201.542969 C 28.40625 194.199219 16.027344 169.96875 23.386719 147.433594 C 23.625 146.730469 23.816406 145.996094 24.074219 145.277344 C 31.429688 122.726562 55.707031 110.410156 78.324219 117.71875 C 108.152344 127.394531 143.449219 138.832031 143.449219 138.832031 L 143.449219 70.488281 C 143.449219 46.769531 162.660156 27.5625 186.441406 27.5625 L 188.730469 27.5625 C 212.464844 27.5625 231.769531 46.769531 231.769531 70.488281 L 231.769531 138.832031 C 231.769531 138.832031 267.066406 127.394531 296.894531 117.71875 C 319.507812 110.394531 343.789062 122.726562 351.097656 145.277344 C 351.386719 146.011719 351.578125 146.730469 351.785156 147.433594 C 359.140625 169.988281 346.8125 194.199219 324.195312 201.542969 C 294.320312 211.21875 259.070312 222.652344 259.070312 222.652344 C 259.070312 222.652344 280.804688 252.59375 299.339844 277.929688 C 313.289062 297.121094 308.984375 323.957031 289.792969 337.90625 C 289.203125 338.335938 288.578125 338.800781 287.9375 339.25 C 268.730469 353.179688 241.828125 348.925781 227.832031 329.730469 C 209.410156 304.398438 187.609375 274.457031 187.609375 274.457031 C 187.609375 274.457031 165.777344 304.398438 147.335938 329.730469 Z M 147.335938 329.730469 " clip-rule="nonzero"/></clipPath><clipPath id="be1769e89f"><path d="M 21.242188 181 L 354 181 L 354 209 L 21.242188 209 Z M 21.242188 181 " clip-rule="nonzero"/></clipPath><clipPath id="778aa184af"><path d="M 147.335938 329.730469 C 133.34375 348.925781 106.488281 353.179688 87.230469 339.25 C 86.59375 338.816406 86.015625 338.351562 85.425781 337.90625 C 66.167969 323.972656 61.929688 297.121094 75.875 277.929688 C 94.300781 252.59375 116.148438 222.652344 116.148438 222.652344 C 116.148438 222.652344 80.851562 211.21875 51.023438 201.542969 C 28.40625 194.199219 16.027344 169.96875 23.386719 147.433594 C 23.625 146.730469 23.816406 145.996094 24.074219 145.277344 C 31.429688 122.726562 55.707031 110.410156 78.324219 117.71875 C 108.152344 127.394531 143.449219 138.832031 143.449219 138.832031 L 143.449219 70.488281 C 143.449219 46.769531 162.660156 27.5625 186.441406 27.5625 L 188.730469 27.5625 C 212.464844 27.5625 231.769531 46.769531 231.769531 70.488281 L 231.769531 138.832031 C 231.769531 138.832031 267.066406 127.394531 296.894531 117.71875 C 319.507812 110.394531 343.789062 122.726562 351.097656 145.277344 C 351.386719 146.011719 351.578125 146.730469 351.785156 147.433594 C 359.140625 169.988281 346.8125 194.199219 324.195312 201.542969 C 294.320312 211.21875 259.070312 222.652344 259.070312 222.652344 C 259.070312 222.652344 280.804688 252.59375 299.339844 277.929688 C 313.289062 297.121094 308.984375 323.957031 289.792969 337.90625 C 289.203125 338.335938 288.578125 338.800781 287.9375 339.25 C 268.730469 353.179688 241.828125 348.925781 227.832031 329.730469 C 209.410156 304.398438 187.609375 274.457031 187.609375 274.457031 C 187.609375 274.457031 165.777344 304.398438 147.335938 329.730469 Z M 147.335938 329.730469 " clip-rule="nonzero"/></clipPath><clipPath id="a9affb54ce"><path d="M 21.242188 196 L 354 196 L 354 224 L 21.242188 224 Z M 21.242188 196 " clip-rule="nonzero"/></clipPath><clipPath id="3beb275bf1"><path d="M 147.335938 329.730469 C 133.34375 348.925781 106.488281 353.179688 87.230469 339.25 C 86.59375 338.816406 86.015625 338.351562 85.425781 337.90625 C 66.167969 323.972656 61.929688 297.121094 75.875 277.929688 C 94.300781 252.59375 116.148438 222.652344 116.148438 222.652344 C 116.148438 222.652344 80.851562 211.21875 51.023438 201.542969 C 28.40625 194.199219 16.027344 169.96875 23.386719 147.433594 C 23.625 146.730469 23.816406 145.996094 24.074219 145.277344 C 31.429688 122.726562 55.707031 110.410156 78.324219 117.71875 C 108.152344 127.394531 143.449219 138.832031 143.449219 138.832031 L 143.449219 70.488281 C 143.449219 46.769531 162.660156 27.5625 186.441406 27.5625 L 188.730469 27.5625 C 212.464844 27.5625 231.769531 46.769531 231.769531 70.488281 L 231.769531 138.832031 C 231.769531 138.832031 267.066406 127.394531 296.894531 117.71875 C 319.507812 110.394531 343.789062 122.726562 351.097656 145.277344 C 351.386719 146.011719 351.578125 146.730469 351.785156 147.433594 C 359.140625 169.988281 346.8125 194.199219 324.195312 201.542969 C 294.320312 211.21875 259.070312 222.652344 259.070312 222.652344 C 259.070312 222.652344 280.804688 252.59375 299.339844 277.929688 C 313.289062 297.121094 308.984375 323.957031 289.792969 337.90625 C 289.203125 338.335938 288.578125 338.800781 287.9375 339.25 C 268.730469 353.179688 241.828125 348.925781 227.832031 329.730469 C 209.410156 304.398438 187.609375 274.457031 187.609375 274.457031 C 187.609375 274.457031 165.777344 304.398438 147.335938 329.730469 Z M 147.335938 329.730469 " clip-rule="nonzero"/></clipPath><clipPath id="f88423b8b4"><path d="M 21.242188 211 L 354 211 L 354 239 L 21.242188 239 Z M 21.242188 211 " clip-rule="nonzero"/></clipPath><clipPath id="7b7dac00a6"><path d="M 147.335938 329.730469 C 133.34375 348.925781 106.488281 353.179688 87.230469 339.25 C 86.59375 338.816406 86.015625 338.351562 85.425781 337.90625 C 66.167969 323.972656 61.929688 297.121094 75.875 277.929688 C 94.300781 252.59375 116.148438 222.652344 116.148438 222.652344 C 116.148438 222.652344 80.851562 211.21875 51.023438 201.542969 C 28.40625 194.199219 16.027344 169.96875 23.386719 147.433594 C 23.625 146.730469 23.816406 145.996094 24.074219 145.277344 C 31.429688 122.726562 55.707031 110.410156 78.324219 117.71875 C 108.152344 127.394531 143.449219 138.832031 143.449219 138.832031 L 143.449219 70.488281 C 143.449219 46.769531 162.660156 27.5625 186.441406 27.5625 L 188.730469 27.5625 C 212.464844 27.5625 231.769531 46.769531 231.769531 70.488281 L 231.769531 138.832031 C 231.769531 138.832031 267.066406 127.394531 296.894531 117.71875 C 319.507812 110.394531 343.789062 122.726562 351.097656 145.277344 C 351.386719 146.011719 351.578125 146.730469 351.785156 147.433594 C 359.140625 169.988281 346.8125 194.199219 324.195312 201.542969 C 294.320312 211.21875 259.070312 222.652344 259.070312 222.652344 C 259.070312 222.652344 280.804688 252.59375 299.339844 277.929688 C 313.289062 297.121094 308.984375 323.957031 289.792969 337.90625 C 289.203125 338.335938 288.578125 338.800781 287.9375 339.25 C 268.730469 353.179688 241.828125 348.925781 227.832031 329.730469 C 209.410156 304.398438 187.609375 274.457031 187.609375 274.457031 C 187.609375 274.457031 165.777344 304.398438 147.335938 329.730469 Z M 147.335938 329.730469 " clip-rule="nonzero"/></clipPath><clipPath id="2fe3b1e2af"><path d="M 21.242188 226 L 354 226 L 354 254 L 21.242188 254 Z M 21.242188 226 " clip-rule="nonzero"/></clipPath><clipPath id="392f0bcef5"><path d="M 147.335938 329.730469 C 133.34375 348.925781 106.488281 353.179688 87.230469 339.25 C 86.59375 338.816406 86.015625 338.351562 85.425781 337.90625 C 66.167969 323.972656 61.929688 297.121094 75.875 277.929688 C 94.300781 252.59375 116.148438 222.652344 116.148438 222.652344 C 116.148438 222.652344 80.851562 211.21875 51.023438 201.542969 C 28.40625 194.199219 16.027344 169.96875 23.386719 147.433594 C 23.625 146.730469 23.816406 145.996094 24.074219 145.277344 C 31.429688 122.726562 55.707031 110.410156 78.324219 117.71875 C 108.152344 127.394531 143.449219 138.832031 143.449219 138.832031 L 143.449219 70.488281 C 143.449219 46.769531 162.660156 27.5625 186.441406 27.5625 L 188.730469 27.5625 C 212.464844 27.5625 231.769531 46.769531 231.769531 70.488281 L 231.769531 138.832031 C 231.769531 138.832031 267.066406 127.394531 296.894531 117.71875 C 319.507812 110.394531 343.789062 122.726562 351.097656 145.277344 C 351.386719 146.011719 351.578125 146.730469 351.785156 147.433594 C 359.140625 169.988281 346.8125 194.199219 324.195312 201.542969 C 294.320312 211.21875 259.070312 222.652344 259.070312 222.652344 C 259.070312 222.652344 280.804688 252.59375 299.339844 277.929688 C 313.289062 297.121094 308.984375 323.957031 289.792969 337.90625 C 289.203125 338.335938 288.578125 338.800781 287.9375 339.25 C 268.730469 353.179688 241.828125 348.925781 227.832031 329.730469 C 209.410156 304.398438 187.609375 274.457031 187.609375 274.457031 C 187.609375 274.457031 165.777344 304.398438 147.335938 329.730469 Z M 147.335938 329.730469 " clip-rule="nonzero"/></clipPath><clipPath id="79d746da21"><path d="M 21.242188 241 L 354 241 L 354 269 L 21.242188 269 Z M 21.242188 241 " clip-rule="nonzero"/></clipPath><clipPath id="4cd6c43f71"><path d="M 147.335938 329.730469 C 133.34375 348.925781 106.488281 353.179688 87.230469 339.25 C 86.59375 338.816406 86.015625 338.351562 85.425781 337.90625 C 66.167969 323.972656 61.929688 297.121094 75.875 277.929688 C 94.300781 252.59375 116.148438 222.652344 116.148438 222.652344 C 116.148438 222.652344 80.851562 211.21875 51.023438 201.542969 C 28.40625 194.199219 16.027344 169.96875 23.386719 147.433594 C 23.625 146.730469 23.816406 145.996094 24.074219 145.277344 C 31.429688 122.726562 55.707031 110.410156 78.324219 117.71875 C 108.152344 127.394531 143.449219 138.832031 143.449219 138.832031 L 143.449219 70.488281 C 143.449219 46.769531 162.660156 27.5625 186.441406 27.5625 L 188.730469 27.5625 C 212.464844 27.5625 231.769531 46.769531 231.769531 70.488281 L 231.769531 138.832031 C 231.769531 138.832031 267.066406 127.394531 296.894531 117.71875 C 319.507812 110.394531 343.789062 122.726562 351.097656 145.277344 C 351.386719 146.011719 351.578125 146.730469 351.785156 147.433594 C 359.140625 169.988281 346.8125 194.199219 324.195312 201.542969 C 294.320312 211.21875 259.070312 222.652344 259.070312 222.652344 C 259.070312 222.652344 280.804688 252.59375 299.339844 277.929688 C 313.289062 297.121094 308.984375 323.957031 289.792969 337.90625 C 289.203125 338.335938 288.578125 338.800781 287.9375 339.25 C 268.730469 353.179688 241.828125 348.925781 227.832031 329.730469 C 209.410156 304.398438 187.609375 274.457031 187.609375 274.457031 C 187.609375 274.457031 165.777344 304.398438 147.335938 329.730469 Z M 147.335938 329.730469 " clip-rule="nonzero"/></clipPath><clipPath id="7b22cd13e1"><path d="M 21.242188 256 L 354 256 L 354 284 L 21.242188 284 Z M 21.242188 256 " clip-rule="nonzero"/></clipPath><clipPath id="c143ef2018"><path d="M 147.335938 329.730469 C 133.34375 348.925781 106.488281 353.179688 87.230469 339.25 C 86.59375 338.816406 86.015625 338.351562 85.425781 337.90625 C 66.167969 323.972656 61.929688 297.121094 75.875 277.929688 C 94.300781 252.59375 116.148438 222.652344 116.148438 222.652344 C 116.148438 222.652344 80.851562 211.21875 51.023438 201.542969 C 28.40625 194.199219 16.027344 169.96875 23.386719 147.433594 C 23.625 146.730469 23.816406 145.996094 24.074219 145.277344 C 31.429688 122.726562 55.707031 110.410156 78.324219 117.71875 C 108.152344 127.394531 143.449219 138.832031 143.449219 138.832031 L 143.449219 70.488281 C 143.449219 46.769531 162.660156 27.5625 186.441406 27.5625 L 188.730469 27.5625 C 212.464844 27.5625 231.769531 46.769531 231.769531 70.488281 L 231.769531 138.832031 C 231.769531 138.832031 267.066406 127.394531 296.894531 117.71875 C 319.507812 110.394531 343.789062 122.726562 351.097656 145.277344 C 351.386719 146.011719 351.578125 146.730469 351.785156 147.433594 C 359.140625 169.988281 346.8125 194.199219 324.195312 201.542969 C 294.320312 211.21875 259.070312 222.652344 259.070312 222.652344 C 259.070312 222.652344 280.804688 252.59375 299.339844 277.929688 C 313.289062 297.121094 308.984375 323.957031 289.792969 337.90625 C 289.203125 338.335938 288.578125 338.800781 287.9375 339.25 C 268.730469 353.179688 241.828125 348.925781 227.832031 329.730469 C 209.410156 304.398438 187.609375 274.457031 187.609375 274.457031 C 187.609375 274.457031 165.777344 304.398438 147.335938 329.730469 Z M 147.335938 329.730469 " clip-rule="nonzero"/></clipPath><clipPath id="1eff3e63c2"><path d="M 21.242188 270 L 354 270 L 354 299 L 21.242188 299 Z M 21.242188 270 " clip-rule="nonzero"/></clipPath><clipPath id="bb00f1fc9f"><path d="M 147.335938 329.730469 C 133.34375 348.925781 106.488281 353.179688 87.230469 339.25 C 86.59375 338.816406 86.015625 338.351562 85.425781 337.90625 C 66.167969 323.972656 61.929688 297.121094 75.875 277.929688 C 94.300781 252.59375 116.148438 222.652344 116.148438 222.652344 C 116.148438 222.652344 80.851562 211.21875 51.023438 201.542969 C 28.40625 194.199219 16.027344 169.96875 23.386719 147.433594 C 23.625 146.730469 23.816406 145.996094 24.074219 145.277344 C 31.429688 122.726562 55.707031 110.410156 78.324219 117.71875 C 108.152344 127.394531 143.449219 138.832031 143.449219 138.832031 L 143.449219 70.488281 C 143.449219 46.769531 162.660156 27.5625 186.441406 27.5625 L 188.730469 27.5625 C 212.464844 27.5625 231.769531 46.769531 231.769531 70.488281 L 231.769531 138.832031 C 231.769531 138.832031 267.066406 127.394531 296.894531 117.71875 C 319.507812 110.394531 343.789062 122.726562 351.097656 145.277344 C 351.386719 146.011719 351.578125 146.730469 351.785156 147.433594 C 359.140625 169.988281 346.8125 194.199219 324.195312 201.542969 C 294.320312 211.21875 259.070312 222.652344 259.070312 222.652344 C 259.070312 222.652344 280.804688 252.59375 299.339844 277.929688 C 313.289062 297.121094 308.984375 323.957031 289.792969 337.90625 C 289.203125 338.335938 288.578125 338.800781 287.9375 339.25 C 268.730469 353.179688 241.828125 348.925781 227.832031 329.730469 C 209.410156 304.398438 187.609375 274.457031 187.609375 274.457031 C 187.609375 274.457031 165.777344 304.398438 147.335938 329.730469 Z M 147.335938 329.730469 " clip-rule="nonzero"/></clipPath><clipPath id="e108d67e32"><path d="M 21.242188 285 L 354 285 L 354 314 L 21.242188 314 Z M 21.242188 285 " clip-rule="nonzero"/></clipPath><clipPath id="a1e20eea5d"><path d="M 147.335938 329.730469 C 133.34375 348.925781 106.488281 353.179688 87.230469 339.25 C 86.59375 338.816406 86.015625 338.351562 85.425781 337.90625 C 66.167969 323.972656 61.929688 297.121094 75.875 277.929688 C 94.300781 252.59375 116.148438 222.652344 116.148438 222.652344 C 116.148438 222.652344 80.851562 211.21875 51.023438 201.542969 C 28.40625 194.199219 16.027344 169.96875 23.386719 147.433594 C 23.625 146.730469 23.816406 145.996094 24.074219 145.277344 C 31.429688 122.726562 55.707031 110.410156 78.324219 117.71875 C 108.152344 127.394531 143.449219 138.832031 143.449219 138.832031 L 143.449219 70.488281 C 143.449219 46.769531 162.660156 27.5625 186.441406 27.5625 L 188.730469 27.5625 C 212.464844 27.5625 231.769531 46.769531 231.769531 70.488281 L 231.769531 138.832031 C 231.769531 138.832031 267.066406 127.394531 296.894531 117.71875 C 319.507812 110.394531 343.789062 122.726562 351.097656 145.277344 C 351.386719 146.011719 351.578125 146.730469 351.785156 147.433594 C 359.140625 169.988281 346.8125 194.199219 324.195312 201.542969 C 294.320312 211.21875 259.070312 222.652344 259.070312 222.652344 C 259.070312 222.652344 280.804688 252.59375 299.339844 277.929688 C 313.289062 297.121094 308.984375 323.957031 289.792969 337.90625 C 289.203125 338.335938 288.578125 338.800781 287.9375 339.25 C 268.730469 353.179688 241.828125 348.925781 227.832031 329.730469 C 209.410156 304.398438 187.609375 274.457031 187.609375 274.457031 C 187.609375 274.457031 165.777344 304.398438 147.335938 329.730469 Z M 147.335938 329.730469 " clip-rule="nonzero"/></clipPath><clipPath id="f1ae341a71"><path d="M 21.242188 300 L 354 300 L 354 328 L 21.242188 328 Z M 21.242188 300 " clip-rule="nonzero"/></clipPath><clipPath id="0d1793cb76"><path d="M 147.335938 329.730469 C 133.34375 348.925781 106.488281 353.179688 87.230469 339.25 C 86.59375 338.816406 86.015625 338.351562 85.425781 337.90625 C 66.167969 323.972656 61.929688 297.121094 75.875 277.929688 C 94.300781 252.59375 116.148438 222.652344 116.148438 222.652344 C 116.148438 222.652344 80.851562 211.21875 51.023438 201.542969 C 28.40625 194.199219 16.027344 169.96875 23.386719 147.433594 C 23.625 146.730469 23.816406 145.996094 24.074219 145.277344 C 31.429688 122.726562 55.707031 110.410156 78.324219 117.71875 C 108.152344 127.394531 143.449219 138.832031 143.449219 138.832031 L 143.449219 70.488281 C 143.449219 46.769531 162.660156 27.5625 186.441406 27.5625 L 188.730469 27.5625 C 212.464844 27.5625 231.769531 46.769531 231.769531 70.488281 L 231.769531 138.832031 C 231.769531 138.832031 267.066406 127.394531 296.894531 117.71875 C 319.507812 110.394531 343.789062 122.726562 351.097656 145.277344 C 351.386719 146.011719 351.578125 146.730469 351.785156 147.433594 C 359.140625 169.988281 346.8125 194.199219 324.195312 201.542969 C 294.320312 211.21875 259.070312 222.652344 259.070312 222.652344 C 259.070312 222.652344 280.804688 252.59375 299.339844 277.929688 C 313.289062 297.121094 308.984375 323.957031 289.792969 337.90625 C 289.203125 338.335938 288.578125 338.800781 287.9375 339.25 C 268.730469 353.179688 241.828125 348.925781 227.832031 329.730469 C 209.410156 304.398438 187.609375 274.457031 187.609375 274.457031 C 187.609375 274.457031 165.777344 304.398438 147.335938 329.730469 Z M 147.335938 329.730469 " clip-rule="nonzero"/></clipPath><clipPath id="9b4d765d82"><path d="M 21.242188 315 L 354 315 L 354 343 L 21.242188 343 Z M 21.242188 315 " clip-rule="nonzero"/></clipPath><clipPath id="7fc6b65854"><path d="M 147.335938 329.730469 C 133.34375 348.925781 106.488281 353.179688 87.230469 339.25 C 86.59375 338.816406 86.015625 338.351562 85.425781 337.90625 C 66.167969 323.972656 61.929688 297.121094 75.875 277.929688 C 94.300781 252.59375 116.148438 222.652344 116.148438 222.652344 C 116.148438 222.652344 80.851562 211.21875 51.023438 201.542969 C 28.40625 194.199219 16.027344 169.96875 23.386719 147.433594 C 23.625 146.730469 23.816406 145.996094 24.074219 145.277344 C 31.429688 122.726562 55.707031 110.410156 78.324219 117.71875 C 108.152344 127.394531 143.449219 138.832031 143.449219 138.832031 L 143.449219 70.488281 C 143.449219 46.769531 162.660156 27.5625 186.441406 27.5625 L 188.730469 27.5625 C 212.464844 27.5625 231.769531 46.769531 231.769531 70.488281 L 231.769531 138.832031 C 231.769531 138.832031 267.066406 127.394531 296.894531 117.71875 C 319.507812 110.394531 343.789062 122.726562 351.097656 145.277344 C 351.386719 146.011719 351.578125 146.730469 351.785156 147.433594 C 359.140625 169.988281 346.8125 194.199219 324.195312 201.542969 C 294.320312 211.21875 259.070312 222.652344 259.070312 222.652344 C 259.070312 222.652344 280.804688 252.59375 299.339844 277.929688 C 313.289062 297.121094 308.984375 323.957031 289.792969 337.90625 C 289.203125 338.335938 288.578125 338.800781 287.9375 339.25 C 268.730469 353.179688 241.828125 348.925781 227.832031 329.730469 C 209.410156 304.398438 187.609375 274.457031 187.609375 274.457031 C 187.609375 274.457031 165.777344 304.398438 147.335938 329.730469 Z M 147.335938 329.730469 " clip-rule="nonzero"/></clipPath><clipPath id="d17724eee6"><path d="M 21.242188 330 L 354 330 L 354 347.8125 L 21.242188 347.8125 Z M 21.242188 330 " clip-rule="nonzero"/></clipPath><clipPath id="6a4f4f8387"><path d="M 147.335938 329.730469 C 133.34375 348.925781 106.488281 353.179688 87.230469 339.25 C 86.59375 338.816406 86.015625 338.351562 85.425781 337.90625 C 66.167969 323.972656 61.929688 297.121094 75.875 277.929688 C 94.300781 252.59375 116.148438 222.652344 116.148438 222.652344 C 116.148438 222.652344 80.851562 211.21875 51.023438 201.542969 C 28.40625 194.199219 16.027344 169.96875 23.386719 147.433594 C 23.625 146.730469 23.816406 145.996094 24.074219 145.277344 C 31.429688 122.726562 55.707031 110.410156 78.324219 117.71875 C 108.152344 127.394531 143.449219 138.832031 143.449219 138.832031 L 143.449219 70.488281 C 143.449219 46.769531 162.660156 27.5625 186.441406 27.5625 L 188.730469 27.5625 C 212.464844 27.5625 231.769531 46.769531 231.769531 70.488281 L 231.769531 138.832031 C 231.769531 138.832031 267.066406 127.394531 296.894531 117.71875 C 319.507812 110.394531 343.789062 122.726562 351.097656 145.277344 C 351.386719 146.011719 351.578125 146.730469 351.785156 147.433594 C 359.140625 169.988281 346.8125 194.199219 324.195312 201.542969 C 294.320312 211.21875 259.070312 222.652344 259.070312 222.652344 C 259.070312 222.652344 280.804688 252.59375 299.339844 277.929688 C 313.289062 297.121094 308.984375 323.957031 289.792969 337.90625 C 289.203125 338.335938 288.578125 338.800781 287.9375 339.25 C 268.730469 353.179688 241.828125 348.925781 227.832031 329.730469 C 209.410156 304.398438 187.609375 274.457031 187.609375 274.457031 C 187.609375 274.457031 165.777344 304.398438 147.335938 329.730469 Z M 147.335938 329.730469 " clip-rule="nonzero"/></clipPath></defs><g clip-path="url(#846d2627fd)"><g clip-path="url(#1c17666295)"><path fill="#c97a0a" d="M -12.34375 17.167969 L 387.5 30.761719 L -12.34375 44.355469 Z M -12.34375 17.167969 " fill-opacity="1" fill-rule="nonzero"/></g></g><g clip-path="url(#b67107c4ed)"><g clip-path="url(#4bcb7b3279)"><path fill="#c97a0a" d="M -12.34375 32.089844 L 387.5 45.683594 L -12.34375 59.277344 Z M -12.34375 32.089844 " fill-opacity="1" fill-rule="nonzero"/></g></g><g clip-path="url(#239f1c3ef4)"><g clip-path="url(#25548eeae4)"><path fill="#c97a0a" d="M -12.34375 47.027344 L 387.5 60.621094 L -12.34375 74.214844 Z M -12.34375 47.027344 " fill-opacity="1" fill-rule="nonzero"/></g></g><g clip-path="url(#4e769411f2)"><g clip-path="url(#ec1c4f6a53)"><path fill="#c97a0a" d="M -12.34375 61.949219 L 387.5 75.542969 L -12.34375 89.136719 Z M -12.34375 61.949219 " fill-opacity="1" fill-rule="nonzero"/></g></g><g clip-path="url(#59d74f00a9)"><g clip-path="url(#4a79bfa28d)"><path fill="#c97a0a" d="M -12.34375 76.871094 L 387.5 90.464844 L -12.34375 104.058594 Z M -12.34375 76.871094 " fill-opacity="1" fill-rule="nonzero"/></g></g><g clip-path="url(#18f8cc3c72)"><g clip-path="url(#bc3f425c98)"><path fill="#c97a0a" d="M -12.34375 91.808594 L 387.5 105.402344 L -12.34375 119 Z M -12.34375 91.808594 " fill-opacity="1" fill-rule="nonzero"/></g></g><g clip-path="url(#8e218f6658)"><g clip-path="url(#dfae917da2)"><path fill="#c97a0a" d="M -12.34375 106.730469 L 387.5 120.324219 L -12.34375 133.921875 Z M -12.34375 106.730469 " fill-opacity="1" fill-rule="nonzero"/></g></g><g clip-path="url(#a7ffdead7a)"><g clip-path="url(#7ac23df32a)"><path fill="#c97a0a" d="M -12.34375 121.652344 L 387.5 135.246094 L -12.34375 148.84375 Z M -12.34375 121.652344 " fill-opacity="1" fill-rule="nonzero"/></g></g><g clip-path="url(#889c80b71e)"><g clip-path="url(#91bda8b24e)"><path fill="#c97a0a" d="M -12.34375 136.589844 L 387.5 150.1875 L -12.34375 163.78125 Z M -12.34375 136.589844 " fill-opacity="1" fill-rule="nonzero"/></g></g><g clip-path="url(#bf552c77ee)"><g clip-path="url(#5dc0c05a8c)"><path fill="#c97a0a" d="M -12.34375 151.511719 L 387.5 165.109375 L -12.34375 178.703125 Z M -12.34375 151.511719 " fill-opacity="1" fill-rule="nonzero"/></g></g><g clip-path="url(#2c8d3a0c11)"><g clip-path="url(#d4ba5630dd)"><path fill="#c97a0a" d="M -12.34375 166.4375 L 387.5 180.03125 L -12.34375 193.625 Z M -12.34375 166.4375 " fill-opacity="1" fill-rule="nonzero"/></g></g><g clip-path="url(#be1769e89f)"><g clip-path="url(#778aa184af)"><path fill="#c97a0a" d="M -12.34375 181.375 L 387.5 194.96875 L -12.34375 208.5625 Z M -12.34375 181.375 " fill-opacity="1" fill-rule="nonzero"/></g></g><g clip-path="url(#a9affb54ce)"><g clip-path="url(#3beb275bf1)"><path fill="#c97a0a" d="M -12.34375 196.296875 L 387.5 209.890625 L -12.34375 223.484375 Z M -12.34375 196.296875 " fill-opacity="1" fill-rule="nonzero"/></g></g><g clip-path="url(#f88423b8b4)"><g clip-path="url(#7b7dac00a6)"><path fill="#c97a0a" d="M -12.34375 211.21875 L 387.5 224.8125 L -12.34375 238.40625 Z M -12.34375 211.21875 " fill-opacity="1" fill-rule="nonzero"/></g></g><g clip-path="url(#2fe3b1e2af)"><g clip-path="url(#392f0bcef5)"><path fill="#c97a0a" d="M -12.34375 226.15625 L 387.5 239.75 L -12.34375 253.347656 Z M -12.34375 226.15625 " fill-opacity="1" fill-rule="nonzero"/></g></g><g clip-path="url(#79d746da21)"><g clip-path="url(#4cd6c43f71)"><path fill="#c97a0a" d="M -12.34375 241.078125 L 387.5 254.671875 L -12.34375 268.269531 Z M -12.34375 241.078125 " fill-opacity="1" fill-rule="nonzero"/></g></g><g clip-path="url(#7b22cd13e1)"><g clip-path="url(#c143ef2018)"><path fill="#c97a0a" d="M -12.34375 256 L 387.5 269.59375 L -12.34375 283.191406 Z M -12.34375 256 " fill-opacity="1" fill-rule="nonzero"/></g></g><g clip-path="url(#1eff3e63c2)"><g clip-path="url(#bb00f1fc9f)"><path fill="#c97a0a" d="M -12.34375 270.9375 L 387.5 284.535156 L -12.34375 298.128906 Z M -12.34375 270.9375 " fill-opacity="1" fill-rule="nonzero"/></g></g><g clip-path="url(#e108d67e32)"><g clip-path="url(#a1e20eea5d)"><path fill="#c97a0a" d="M -12.34375 285.859375 L 387.5 299.457031 L -12.34375 313.050781 Z M -12.34375 285.859375 " fill-opacity="1" fill-rule="nonzero"/></g></g><g clip-path="url(#f1ae341a71)"><g clip-path="url(#0d1793cb76)"><path fill="#c97a0a" d="M -12.34375 300.785156 L 387.5 314.378906 L -12.34375 327.972656 Z M -12.34375 300.785156 " fill-opacity="1" fill-rule="nonzero"/></g></g><g clip-path="url(#9b4d765d82)"><g clip-path="url(#7fc6b65854)"><path fill="#c97a0a" d="M -12.34375 315.722656 L 387.5 329.316406 L -12.34375 342.910156 Z M -12.34375 315.722656 " fill-opacity="1" fill-rule="nonzero"/></g></g><g clip-path="url(#d17724eee6)"><g clip-path="url(#6a4f4f8387)"><path fill="#c97a0a" d="M -12.34375 330.644531 L 387.5 344.238281 L -12.34375 357.832031 Z M -12.34375 330.644531 " fill-opacity="1" fill-rule="nonzero"/></g></g></svg>