<svg xmlns="http://www.w3.org/2000/svg" viewBox="0 0 64 64" width="64" height="64">
  <g fill="none" stroke-width="3" stroke-linecap="round" stroke-linejoin="round">
    <path d="M29.3 45.3l5.3 5.3a2.7 2.7 0 1 0 8-8" stroke="#222222"/>
    <path d="M37.3 37.3l6.7 6.7a2.7 2.7 0 1 0 8-8l-10.3-10.3a8 8 0 0 0-11.3 0l-2.3 2.3a2.7 2.7 0 1 1-8-8l7.5-7.5a15.4 15.4 0 0 1 18.8-2.3l1.3.7a5.3 5.3 0 0 0 3.8.7L56 10.7" stroke="#222222"/>
    <path d="M56 8l2.7 29.3h-5.3" stroke="#222222"/>
    <path d="M8 8L5.3 37.3l17.3 17.3a2.7 2.7 0 1 0 8-8" stroke="#2f4a36"/>
    <path d="M8 10.7h21.3" stroke="#2f4a36"/>
  </g>
</svg>
