<svg xmlns="http://www.w3.org/2000/svg" viewBox="0 0 64 64" width="64" height="64">
  <path d="M32 10C32 10 24 20 24 27A8 8 0 0 0 40 27C40 20 32 10 32 10Z" fill="#5a5a5a" stroke="#0a0a0a" stroke-width="3" stroke-linejoin="round"/>
  <path d="M10 42C14 38 18 38 22 42 26 46 30 46 34 42 38 38 42 38 46 42 50 46 54 46 54 46" fill="none" stroke="#0a0a0a" stroke-width="3" stroke-linecap="round" stroke-linejoin="round"/>
  <path d="M10 52C14 48 18 48 22 52 26 56 30 56 34 52 38 48 42 48 46 52 50 56 54 56 54 56" fill="none" stroke="#0a0a0a" stroke-width="3" stroke-linecap="round" stroke-linejoin="round"/>
</svg>
